<?xml version="1.0" standalone="no"?>
<!DOCTYPE svg PUBLIC "-//W3C//DTD SVG 20010904//EN"
 "http://www.w3.org/TR/2001/REC-SVG-20010904/DTD/svg10.dtd">
<svg version="1.0" xmlns="http://www.w3.org/2000/svg"
 width="251.000000pt" height="201.000000pt" viewBox="0 0 251.000000 201.000000"
 preserveAspectRatio="xMidYMid meet">

<g transform="translate(0.000000,201.000000) scale(0.100000,-0.100000)"
fill="#000000" stroke="none">
<path d="M1240 2004 c-91 -12 -206 -37 -277 -61 -324 -108 -585 -352 -684
-642 -23 -66 -24 -83 -3 -79 10 2 32 38 53 88 129 299 417 514 790 590 124 25
344 27 476 4 417 -72 758 -353 850 -699 25 -93 30 -236 12 -331 -55 -288 -274
-540 -587 -675 -176 -76 -338 -104 -553 -96 -124 4 -174 11 -269 35 -130 34
-272 96 -378 168 -149 100 -290 269 -346 416 -24 64 -46 90 -61 74 -10 -10 26
-115 68 -196 260 -501 931 -724 1504 -499 546 213 809 765 600 1261 -132 312
-437 544 -820 623 -78 16 -306 28 -375 19z"/>
<path d="M1522 1700 c-194 -51 -364 -191 -455 -374 -41 -84 -45 -106 -19 -106
11 0 30 26 57 78 128 251 444 396 735 338 423 -84 658 -524 476 -891 -96 -192
-261 -315 -486 -361 -296 -60 -609 95 -741 369 -15 30 -29 47 -41 47 -27 0
-22 -19 28 -120 36 -71 63 -108 123 -168 87 -87 157 -132 274 -176 78 -28 90
-30 232 -30 142 0 154 2 232 30 113 42 184 87 268 169 85 83 136 166 177 290
28 80 31 103 32 210 0 182 -49 325 -159 458 -96 116 -228 201 -370 237 -103
26 -261 26 -363 0z"/>
<path d="M1234 1200 c-28 -11 -54 -48 -54 -77 0 -13 -9 -27 -22 -34 l-22 -12
22 -8 c20 -8 22 -15 22 -93 0 -83 0 -85 -27 -94 -23 -9 -13 -10 52 -10 65 0
75 1 53 10 -28 10 -28 11 -28 99 l0 89 35 0 c19 0 35 5 35 10 0 6 -16 10 -35
10 -33 0 -35 2 -35 34 0 19 3 41 6 50 9 23 39 20 56 -6 16 -24 38 -17 38 12 0
29 -49 39 -96 20z"/>
<path d="M1675 1196 c-36 -11 -38 -13 -17 -20 21 -7 22 -11 22 -146 l0 -138
-27 -10 c-23 -9 -13 -10 52 -10 48 0 70 3 55 7 l-25 7 -3 162 c-1 89 -6 162
-10 161 -4 0 -25 -6 -47 -13z"/>
<path d="M23 1159 l28 -11 -3 -131 c-3 -130 -3 -131 -28 -138 -14 -4 14 -7 65
-7 51 0 77 3 60 7 -29 6 -30 8 -33 66 l-3 60 69 1 c53 0 76 5 106 23 33 21 37
27 34 59 -2 25 -11 41 -31 56 -25 19 -44 21 -160 23 -102 2 -126 0 -104 -8z
m179 -9 c99 -28 64 -135 -41 -128 l-46 3 -3 54 c-2 29 -1 60 2 67 6 17 37 18
88 4z"/>
<path d="M1863 1148 c-28 -13 -30 -28 -4 -28 30 0 51 11 51 26 0 16 -16 17
-47 2z"/>
<path d="M948 1115 c-44 -40 -45 -45 -18 -45 19 0 20 -7 20 -95 0 -94 0 -96
27 -106 35 -13 81 -2 94 23 10 19 9 20 -7 13 -63 -26 -64 -25 -64 74 l0 91 36
0 c21 0 33 4 29 10 -3 6 -19 10 -36 10 -26 0 -29 3 -29 30 0 17 -3 30 -7 30
-5 0 -25 -16 -45 -35z"/>
<path d="M402 1073 c-67 -33 -81 -129 -25 -172 63 -50 153 -48 209 4 38 36 44
76 19 124 -29 56 -133 79 -203 44z m112 -4 c52 -24 65 -121 21 -164 -53 -54
-135 -15 -135 64 0 86 49 129 114 100z"/>
<path d="M693 1077 c-37 -12 -44 -27 -13 -27 18 0 20 -7 20 -80 0 -74 -2 -81
-22 -90 -17 -6 -2 -9 52 -8 46 0 65 3 50 7 -23 6 -25 12 -28 78 -2 63 0 75 18
93 l22 22 14 -21 c18 -25 37 -27 54 -6 30 36 -44 62 -86 30 -25 -19 -34 -19
-34 0 0 17 -1 17 -47 2z"/>
<path d="M1382 1070 c-62 -38 -74 -115 -25 -165 67 -67 199 -50 237 30 28 58
6 109 -61 144 -35 18 -114 13 -151 -9z m139 -19 c33 -34 39 -83 14 -130 -16
-32 -33 -41 -74 -41 -59 0 -99 87 -67 148 31 59 81 68 127 23z"/>
<path d="M1845 1076 c-38 -11 -39 -12 -14 -19 24 -6 25 -9 25 -84 -1 -72 -3
-78 -26 -90 -22 -11 -17 -13 50 -12 55 0 69 3 53 9 -22 9 -23 15 -23 110 0
110 2 107 -65 86z"/>
<path d="M2044 1076 c-98 -44 -80 -178 28 -206 67 -19 147 9 173 60 23 45 19
76 -19 117 -30 33 -39 37 -92 40 -36 2 -71 -2 -90 -11z m128 -26 c28 -28 30
-35 26 -82 -6 -60 -32 -88 -83 -88 -83 0 -112 144 -37 185 40 21 60 18 94 -15z"/>
</g>
</svg>
