<?xml version="1.0" standalone="no"?>
<!DOCTYPE svg PUBLIC "-//W3C//DTD SVG 20010904//EN"
 "http://www.w3.org/TR/2001/REC-SVG-20010904/DTD/svg10.dtd">
<svg version="1.0" xmlns="http://www.w3.org/2000/svg"
 width="200.000000pt" height="200.000000pt" viewBox="0 0 200.000000 200.000000"
 preserveAspectRatio="xMidYMid meet">

<g transform="translate(0.000000,200.000000) scale(0.100000,-0.100000)"
fill="#000000" stroke="none">
<path d="M906 1744 c-55 -17 -82 -33 -143 -81 -32 -26 -45 -45 -57 -87 -17
-56 -19 -145 -7 -231 8 -57 13 -47 31 55 12 64 31 113 50 125 5 3 24 -2 42
-11 107 -55 240 -58 394 -9 18 5 23 0 37 -37 9 -24 22 -71 28 -105 7 -35 17
-63 22 -63 4 0 8 57 7 128 -1 70 1 135 5 144 15 37 -85 135 -172 168 -64 24
-165 26 -237 4z"/>
<path d="M660 779 c-25 -12 -69 -30 -99 -40 -30 -10 -60 -24 -67 -30 -8 -6
-14 -9 -14 -5 0 4 -14 -1 -30 -9 -18 -9 -28 -20 -24 -27 5 -7 2 -9 -8 -5 -16
6 -70 -40 -89 -75 -12 -22 -6 -23 15 -3 13 14 15 13 13 -4 0 -10 -6 -17 -12
-15 -5 2 -15 0 -22 -4 -20 -13 -44 -122 -42 -197 1 -38 -2 -82 -6 -98 l-7 -27
160 0 c159 0 161 0 165 22 l4 23 2 -22 1 -22 399 0 400 0 4 22 4 22 2 -22 c1
-23 2 -23 162 -23 l161 0 -6 27 c-3 16 -7 71 -9 123 -3 67 -10 111 -26 151
-24 64 -84 131 -109 122 -10 -4 -13 -2 -8 5 5 9 -39 42 -59 43 -2 0 -20 6 -39
14 -20 8 -38 15 -42 15 -3 0 -37 14 -76 31 -38 17 -71 29 -72 27 -2 -2 -65
-126 -142 -275 -76 -150 -141 -273 -144 -273 -3 0 -68 124 -145 275 -77 151
-142 275 -145 275 -3 0 -25 -10 -50 -21z m-100 -69 c0 -5 -2 -10 -4 -10 -3 0
-8 5 -11 10 -3 6 -1 10 4 10 6 0 11 -4 11 -10z m37 -22 c-3 -7 -5 -2 -5 12 0
14 2 19 5 13 2 -7 2 -19 0 -25z m810 0 c-3 -7 -5 -2 -5 12 0 14 2 19 5 13 2
-7 2 -19 0 -25z m53 28 c0 -3 -4 -8 -10 -11 -5 -3 -10 -1 -10 4 0 6 5 11 10
11 6 0 10 -2 10 -4z m-934 -25 c-9 -13 -56 -20 -63 -8 -3 5 -2 8 3 5 5 -3 18
-2 29 3 27 10 37 11 31 0z m1006 -7 c-3 -10 -43 -6 -55 6 -5 4 6 7 25 5 18 -1
32 -6 30 -11z m-981 -18 c-9 -11 -9 -15 1 -19 9 -4 9 -6 1 -6 -6 -1 -15 4 -18
9 -8 12 2 30 17 30 7 0 7 -5 -1 -14z m930 -1 c27 -11 29 -14 12 -15 -12 0 -27
-2 -35 -3 -7 -2 -9 -2 -5 1 4 2 3 10 -4 18 -14 18 -10 18 32 -1z m-1011 -9 c0
-2 -7 -7 -16 -10 -8 -3 -12 -2 -9 4 6 10 25 14 25 6z m1085 -6 c3 -6 -1 -7 -9
-4 -18 7 -21 14 -7 14 6 0 13 -4 16 -10z m-1158 -22 c2 -17 0 -19 -7 -8 -5 8
-6 18 -4 22 8 12 10 10 11 -14z m1216 -3 c-7 -21 -12 -19 -10 4 0 11 5 18 9
15 4 -3 5 -11 1 -19z m-1016 -1 c-3 -3 -12 -4 -19 -1 -8 3 -5 6 6 6 11 1 17
-2 13 -5z m830 0 c-3 -3 -12 -4 -19 -1 -8 3 -5 6 6 6 11 1 17 -2 13 -5z m-767
-14 c18 -12 2 -12 -25 0 -13 6 -15 9 -5 9 8 0 22 -4 30 -9z m705 0 c-27 -12
-43 -12 -25 0 8 5 22 9 30 9 10 0 8 -3 -5 -9z m-978 -29 c0 -11 -5 -18 -9 -15
-4 3 -5 11 -1 19 7 21 12 19 10 -4z m228 9 c8 -13 -25 -13 -45 0 -12 8 -9 10
12 10 15 0 30 -4 33 -10z m810 0 c-26 -11 -48 -12 -41 -2 2 4 17 8 33 9 24 1
25 0 8 -7z m198 -5 c4 -8 3 -16 -1 -19 -4 -3 -9 4 -9 15 -2 23 3 25 10 4z m40
-6 c5 -3 2 -9 -5 -12 -9 -3 -14 3 -15 15 -1 11 1 16 5 12 4 -5 11 -12 15 -15z
m-1003 1 c0 -5 -4 -10 -10 -10 -5 0 -10 5 -10 10 0 6 5 10 10 10 6 0 10 -4 10
-10z m700 0 c0 -5 -2 -10 -4 -10 -3 0 -8 5 -11 10 -3 6 -1 10 4 10 6 0 11 -4
11 -10z m-1043 -92 c-3 -7 -5 -2 -5 12 0 14 2 19 5 13 2 -7 2 -19 0 -25z
m1370 10 c-3 -8 -6 -5 -6 6 -1 11 2 17 5 13 3 -3 4 -12 1 -19z m-1374 -158 c3
-27 2 -39 -3 -30 -4 8 -11 42 -14 75 -7 69 8 30 17 -45z m4 78 c-3 -8 -6 -5
-6 6 -1 11 2 17 5 13 3 -3 4 -12 1 -19z m1370 0 c-3 -8 -6 -5 -6 6 -1 11 2 17
5 13 3 -3 4 -12 1 -19z m17 -40 c-4 -29 -10 -60 -15 -68 -9 -15 -8 -8 6 83 9
57 17 44 9 -15z m-1007 25 c-4 -3 0 -15 10 -25 15 -17 15 -18 -5 -18 -17 0
-22 6 -22 25 0 14 5 25 12 25 6 0 8 -3 5 -7z m623 -18 c0 -19 -5 -25 -22 -25
-20 0 -20 1 -5 18 10 10 14 22 10 25 -3 4 -1 7 5 7 7 0 12 -11 12 -25z m-813
-47 c-2 -13 -4 -3 -4 22 0 25 2 35 4 23 2 -13 2 -33 0 -45z m33 42 c0 -11 -4
-20 -9 -20 -5 0 -7 9 -4 20 3 11 7 20 9 20 2 0 4 -9 4 -20z m933 0 c3 -11 1
-23 -4 -26 -5 -3 -9 6 -9 20 0 31 6 34 13 6z m38 -45 c7 17 8 17 6 2 -4 -36
-22 -21 -23 21 l-1 42 5 -42 c3 -35 6 -39 13 -23z m-151 20 c0 -8 -4 -15 -10
-15 -5 0 -7 7 -4 15 4 8 8 15 10 15 2 0 4 -7 4 -15z m57 -32 c-3 -10 -5 -2 -5
17 0 19 2 27 5 18 2 -10 2 -26 0 -35z m-830 0 c-3 -10 -5 -4 -5 12 0 17 2 24
5 18 2 -7 2 -21 0 -30z m29 -11 c-18 -16 -19 -16 -12 1 3 10 6 24 6 30 0 8 4
7 12 -1 10 -9 8 -16 -6 -30z m774 29 c0 -5 3 -18 7 -28 6 -16 5 -16 -10 -4
-19 15 -23 41 -7 41 6 0 10 -4 10 -9z m-35 -66 c6 -2 -11 -4 -37 -4 -27 -1
-48 3 -48 7 0 7 62 5 85 -3z m-1058 -17 c-3 -8 -6 -5 -6 6 -1 11 2 17 5 13 3
-3 4 -12 1 -19z m396 15 c-7 -2 -19 -2 -25 0 -7 3 -2 5 12 5 14 0 19 -2 13 -5z
m684 -15 c-3 -8 -6 -5 -6 6 -1 11 2 17 5 13 3 -3 4 -12 1 -19z m246 15 c-7 -2
-19 -2 -25 0 -7 3 -2 5 12 5 14 0 19 -2 13 -5z m54 1 c-3 -3 -12 -4 -19 -1 -8
3 -5 6 6 6 11 1 17 -2 13 -5z"/>
<path d="M1023 657 c0 -8 6 -14 14 -14 9 0 10 4 2 14 -6 7 -12 13 -14 13 -1 0
-2 -6 -2 -13z"/>
</g>
</svg>
