<?xml version="1.0" standalone="no"?>
<!DOCTYPE svg PUBLIC "-//W3C//DTD SVG 20010904//EN"
 "http://www.w3.org/TR/2001/REC-SVG-20010904/DTD/svg10.dtd">
<svg version="1.0" xmlns="http://www.w3.org/2000/svg"
 width="225.000000pt" height="225.000000pt" viewBox="0 0 225.000000 225.000000"
 preserveAspectRatio="xMidYMid meet">

<g transform="translate(0.000000,225.000000) scale(0.100000,-0.100000)"
fill="#000000" stroke="none">
<path d="M1056 2167 c-23 -12 -40 -30 -48 -53 -7 -21 -17 -33 -25 -30 -7 3
-13 -1 -13 -9 0 -9 -9 -15 -22 -15 -12 0 -18 -3 -14 -7 3 -4 -3 -12 -15 -18
-15 -9 -22 -23 -24 -48 -1 -20 2 -34 7 -31 4 3 8 -12 8 -33 0 -21 8 -60 18
-87 l19 -48 7 72 c5 62 10 76 33 96 33 29 96 39 149 26 21 -6 65 -14 97 -18
56 -6 93 -26 82 -44 -3 -5 2 -26 10 -47 9 -21 19 -72 23 -113 l6 -75 11 40
c11 36 13 38 23 20 11 -20 11 -20 12 1 0 11 -5 25 -11 31 -8 8 -4 23 11 54 25
48 28 114 8 182 -35 123 -240 212 -352 154z"/>
<path d="M1171 1818 c-14 -7 -26 -18 -28 -25 -6 -17 34 -53 59 -53 20 0 20 1
5 13 -12 8 -14 16 -7 27 5 8 10 10 10 4 0 -6 17 -11 40 -11 42 0 48 5 28 26
-11 11 -10 13 5 7 13 -4 17 -2 15 6 -6 18 -97 21 -127 6z"/>
<path d="M975 1810 c-5 -9 23 -15 48 -11 4 0 7 -3 7 -9 0 -5 -7 -10 -15 -10
-8 0 -15 -5 -15 -11 0 -6 7 -9 15 -5 8 3 15 1 15 -5 0 -6 12 -9 27 -7 22 2 28
9 30 29 1 22 -3 28 -29 33 -45 9 -76 7 -83 -4z"/>
<path d="M1400 1813 c0 -5 5 -15 10 -23 8 -12 10 -11 10 8 0 12 -4 22 -10 22
-5 0 -10 -3 -10 -7z"/>
<path d="M951 1724 c0 -11 3 -14 6 -6 3 7 2 16 -1 19 -3 4 -6 -2 -5 -13z"/>
<path d="M1360 1664 c0 -8 5 -12 10 -9 6 3 10 10 10 16 0 5 -4 9 -10 9 -5 0
-10 -7 -10 -16z"/>
<path d="M1130 1660 c0 -5 12 -10 26 -10 14 0 23 4 19 10 -3 6 -15 10 -26 10
-10 0 -19 -4 -19 -10z"/>
<path d="M1090 1649 c0 -5 5 -7 10 -4 6 3 10 8 10 11 0 2 -4 4 -10 4 -5 0 -10
-5 -10 -11z"/>
<path d="M1135 1594 l-80 -12 83 3 c46 2 86 5 88 8 12 12 -17 12 -91 1z"/>
<path d="M1320 1591 c0 -6 -6 -11 -12 -9 -23 5 -69 -34 -66 -55 2 -14 -4 -22
-22 -27 -14 -4 -45 -13 -70 -21 -61 -17 -68 -26 -28 -34 18 -4 39 -16 46 -26
7 -11 17 -19 21 -19 15 0 116 98 135 131 17 29 17 32 2 26 -14 -6 -15 -3 -5
14 6 11 8 23 5 27 -3 3 -6 0 -6 -7z"/>
<path d="M1125 1550 c-4 -6 6 -10 24 -10 16 0 33 5 36 10 4 6 -6 10 -24 10
-16 0 -33 -4 -36 -10z"/>
<path d="M1384 1483 c7 -12 -44 -114 -88 -178 -11 -16 -22 -36 -23 -45 -1 -8
-32 -78 -68 -155 -60 -126 -66 -135 -59 -90 4 28 8 76 8 107 1 45 7 64 26 87
14 17 33 30 43 31 14 0 10 7 -16 29 -42 37 -99 43 -141 16 -25 -17 -26 -20
-12 -31 26 -18 32 -79 12 -109 -18 -28 -34 -100 -45 -202 -3 -34 -9 -64 -12
-68 -21 -20 -27 284 -7 360 6 22 11 73 13 114 2 69 1 73 -14 53 -19 -24 -152
-83 -201 -88 -77 -9 -127 -33 -144 -69 -9 -18 -16 -40 -16 -49 0 -9 -4 -16 -9
-16 -8 0 -55 -140 -56 -170 -1 -8 -9 -32 -18 -52 -9 -21 -17 -46 -17 -56 0
-10 -4 -22 -9 -28 -21 -23 -66 -284 -58 -336 9 -61 35 -140 48 -149 8 -5 52
-21 99 -36 47 -14 89 -30 94 -34 6 -6 1 -33 -13 -72 -13 -39 -20 -74 -16 -89
4 -14 -1 -49 -9 -79 -9 -29 -16 -59 -16 -66 0 -11 91 -13 491 -13 l491 0 -6
23 c-14 51 -18 105 -8 111 13 8 12 11 -35 129 -32 80 -34 89 -20 105 18 20 67
106 97 169 69 147 90 211 90 276 0 24 8 49 20 64 16 21 20 39 19 87 -1 34 2
104 6 157 9 108 1 133 -42 143 -88 21 -171 52 -216 82 -28 19 -57 34 -63 34
-6 0 -29 21 -50 48 -43 54 -60 73 -50 55z m169 -637 c21 -17 22 -32 1 -40 -13
-5 -14 -9 -4 -22 14 -15 13 -17 -30 -50 -14 -10 -25 -26 -25 -34 0 -8 -8 -15
-17 -14 -10 0 -40 1 -68 2 -47 2 -49 3 -34 20 8 9 25 33 37 52 21 31 100 100
115 100 4 0 15 -7 25 -14z m-655 -103 c49 -7 60 -18 39 -41 -8 -9 -18 -38 -21
-64 -6 -39 -11 -47 -34 -54 -42 -11 -72 -4 -109 24 -29 24 -33 32 -30 69 3 53
38 86 82 78 17 -3 49 -8 73 -12z m164 -587 c14 -20 9 -23 -37 -24 l-45 0 17
28 c14 25 20 27 37 18 12 -6 24 -16 28 -22z"/>
<path d="M1030 1431 c0 -11 53 -82 76 -103 11 -9 24 -14 30 -10 6 4 -14 30
-48 64 -32 31 -58 53 -58 49z"/>
</g>
</svg>
